# xmcd CD database file
# Copyright (C) 1995-1998 Ti Kan
#
# Track frame offsets:
#	150
#	10090
#	22285
#	32690
#	44047
#	55880
#	67010
#	75660
#	93112
#	112865
#	123015
#	141185
#	154060
#	179907
#	191450
#	205632
#	222147
#	230700
#
# Disc length: 3260 seconds
#
# Revision: 1
# Processed by: cddbd v1.4b41PL1 Copyright (c) Steve Scherf et al.
# Submitted via: CDex 1.30
#
DISCID=f80cba12
DTITLE=Earl Hooker - Smooth Slidin'
DYEAR=1998
DGENRE=Blues
TTITLE0=How Long Can This Go ON
TTITLE1=Those Cotton-Pickin' Blues
TTITLE2=You Better Be Sure
TTITLE3=The Leading Brand
TTITLE4=Nothing But Poison
TTITLE5=Nothing But Good
TTITLE6=The Foxtrot
TTITLE7=Bertha
TTITLE8=End Of The Blues
TTITLE9=Walking The Floor Over You
TTITLE10=Off The Hook
TTITLE11=Hold On....I'm Coming
TTITLE12=Two Bugs In A Rug
TTITLE13=Hooker Special
TTITLE14=Something You Ate
TTITLE15=Dust My Broom
TTITLE16=Hot And Heavy
TTITLE17=The Screwdrive
EXTD=YEAR: 1998  ID3G:   0
EXTT0=
EXTT1=
EXTT2=
EXTT3=
EXTT4=
EXTT5=
EXTT6=
EXTT7=
EXTT8=
EXTT9=
EXTT10=
EXTT11=
EXTT12=
EXTT13=
EXTT14=
EXTT15=
EXTT16=
EXTT17=
PLAYORDER=
